<?xml version="1.0" standalone="no"?>
<!DOCTYPE svg PUBLIC "-//W3C//DTD SVG 20010904//EN"
 "http://www.w3.org/TR/2001/REC-SVG-20010904/DTD/svg10.dtd">
<svg version="1.0" xmlns="http://www.w3.org/2000/svg"
 width="700.000000pt" height="700.000000pt" viewBox="0 0 700.000000 700.000000"
 preserveAspectRatio="xMidYMid meet">
<metadata>
Created by potrace 1.14, written by Peter Selinger 2001-2017
</metadata>
<g transform="translate(0.000000,700.000000) scale(0.100000,-0.100000)"
fill="#000000" stroke="none">
<path d="M2025 5848 c-441 -51 -804 -410 -863 -853 -4 -27 -7 -716 -7 -1530
l0 -1480 22 -88 c90 -352 346 -627 678 -727 141 -43 151 -43 938 -44 417 -1
762 1 766 4 5 3 14 59 20 125 7 66 14 139 17 162 6 48 6 49 -94 162 -222 250
-242 278 -242 338 0 37 24 80 82 145 25 29 94 107 152 173 l106 120 -5 60 c-3
33 -8 80 -10 105 -3 25 -7 70 -10 100 -9 99 -16 174 -21 201 -5 35 34 109 72
134 19 13 106 36 235 63 112 24 218 48 234 53 25 8 48 40 143 202 123 210 135
227 173 251 54 34 100 24 329 -73 118 -50 221 -91 228 -91 6 0 108 41 226 90
224 94 268 105 322 77 42 -22 44 -24 179 -251 100 -167 125 -201 145 -204 l25
-3 -1 943 c-1 1000 -2 1013 -50 1156 -108 324 -387 586 -699 657 -33 8 -73 17
-90 21 -16 4 -308 8 -647 9 l-618 2 0 -1004 c0 -907 -2 -1008 -16 -1039 -34
-71 -120 -101 -190 -67 -21 11 -153 87 -291 171 -233 140 -257 152 -300 152
-31 -1 -62 -9 -85 -23 -21 -12 -142 -84 -268 -160 -127 -76 -244 -143 -260
-149 -66 -23 -161 28 -176 95 -4 18 -8 480 -8 1027 l-1 995 -35 0 c-19 1 -66
-3 -105 -7z"/>
<path d="M4494 3291 c-21 -13 -56 -62 -108 -152 -128 -220 -133 -226 -169
-233 -51 -10 -69 -14 -117 -25 -52 -13 -57 -14 -169 -37 -65 -14 -89 -24 -112
-46 -26 -26 -54 -92 -45 -107 2 -3 7 -42 11 -86 3 -44 8 -91 10 -105 2 -14 7
-59 10 -100 4 -41 9 -78 11 -82 4 -5 -71 -98 -141 -174 -60 -66 -122 -141
-133 -160 -6 -13 -13 -41 -14 -63 -1 -40 11 -62 76 -136 15 -16 59 -68 99
-115 40 -47 80 -91 90 -99 17 -12 18 -23 12 -114 -3 -56 -8 -104 -10 -107 -1
-3 -6 -50 -10 -105 -4 -55 -8 -102 -10 -105 -8 -12 35 -89 57 -104 20 -13 70
-27 144 -42 61 -12 275 -62 278 -65 3 -2 48 -78 101 -169 109 -186 125 -206
169 -217 52 -12 72 -7 257 72 98 41 185 75 192 75 13 0 49 -15 162 -65 215
-96 261 -105 317 -63 18 14 40 38 48 54 16 30 180 306 186 313 3 4 99 27 149
37 17 3 50 10 75 15 25 6 56 13 70 15 123 23 177 63 182 136 1 23 -9 149 -17
210 -3 18 -7 74 -10 123 l-6 90 53 57 c81 87 204 230 216 255 19 36 14 95 -10
130 -27 36 -157 188 -217 253 l-42 45 6 91 c3 50 7 102 10 115 7 47 17 185 16
214 -2 28 -21 66 -46 91 -15 15 -64 30 -180 55 -112 23 -118 24 -195 42 l-54
12 -107 180 c-113 191 -135 215 -200 215 -32 0 -193 -62 -365 -140 -33 -16
-49 -19 -57 -11 -6 6 -17 11 -24 11 -7 0 -36 11 -65 24 -263 119 -316 133
-374 97z m954 -927 c51 -34 75 -108 53 -167 -10 -25 -585 -610 -630 -639 -31
-22 -92 -23 -129 -4 -15 8 -99 88 -188 179 -164 167 -181 192 -169 252 2 11 4
25 4 31 2 21 63 73 93 79 65 15 93 -1 211 -115 l112 -110 247 248 c136 136
260 252 275 258 34 14 89 9 121 -12z"/>
</g>
</svg>
